[PACKET]
codec_type=video
stream_index=0
pts=4086
pts_time=0.266016
dts=3574
dts_time=0.232682
duration=512
duration_time=0.033333
size=279106
pos=3653
flags=K__
[/PACKET]
[PACKET]
codec_type=video
stream_index=0
pts=4598
pts_time=0.299349
dts=4086
dts_time=0.266016
duration=512
duration_time=0.033333
size=1208
pos=283139
flags=___
[/PACKET]
[PACKET]
codec_type=video
stream_index=0
pts=5110
pts_time=0.332682
dts=4598
dts_time=0.299349
duration=512
duration_time=0.033333
size=4330
pos=285135
flags=___
[/PACKET]
[PACKET]
codec_type=video
stream_index=0
pts=5622
pts_time=0.366016
dts=5110
dts_time=0.332682
duration=512
duration_time=0.033333
size=1514
pos=289893
flags=___
[/PACKET]
[PACKET]
codec_type=video
stream_index=0
pts=6134
pts_time=0.399349
dts=5622
dts_time=0.366016
duration=512
duration_time=0.033333
size=2343
pos=292242
flags=___
[/PACKET]
[PACKET]
codec_type=video
stream_index=0
pts=6646
pts_time=0.432682
dts=6134
dts_time=0.399349
duration=512
duration_time=0.033333
size=2329
pos=294934
flags=___
[/PACKET]
[PACKET]
codec_type=video
stream_index=0
pts=7158
pts_time=0.466016
dts=6646
dts_time=0.432682
duration=512
duration_time=0.033333
size=2223
pos=297610
flags=___
[/PACKET]
[PACKET]
codec_type=video
stream_index=0
pts=7670
pts_time=0.499349
dts=7158
dts_time=0.466016
duration=512
duration_time=0.033333
size=2198
pos=300529
flags=___
[/PACKET]
[PACKET]
codec_type=video
stream_index=0
pts=8182
pts_time=0.532682
dts=7670
dts_time=0.499349
duration=512
duration_time=0.033333
size=2081
pos=303073
flags=___
[/PACKET]
[PACKET]
codec_type=video
stream_index=0
pts=8694
pts_time=0.566016
dts=8182
dts_time=0.532682
duration=512
duration_time=0.033333
size=2193
pos=305865
flags=___
[/PACKET]
[PACKET]
codec_type=video
stream_index=0
pts=9206
pts_time=0.599349
dts=8694
dts_time=0.566016
duration=512
duration_time=0.033333
size=1883
pos=308423
flags=___
[/PACKET]
[PACKET]
codec_type=video
stream_index=0
pts=9718
pts_time=0.632682
dts=9206
dts_time=0.599349
duration=512
duration_time=0.033333
size=1975
pos=311032
flags=___
[/PACKET]
[PACKET]
codec_type=video
stream_index=0
pts=10230
pts_time=0.666016
dts=9718
dts_time=0.632682
duration=512
duration_time=0.033333
size=3321
pos=313365
flags=___
[/PACKET]
[PACKET]
codec_type=video
stream_index=0
pts=10742
pts_time=0.699349
dts=10230
dts_time=0.666016
duration=512
duration_time=0.033333
size=5459
pos=317424
flags=___
[/PACKET]
[PACKET]
codec_type=video
stream_index=0
pts=11254
pts_time=0.732682
dts=10742
dts_time=0.699349
duration=512
duration_time=0.033333
size=1912
pos=323442
flags=___
[/PACKET]
[PACKET]
codec_type=video
stream_index=0
pts=11766
pts_time=0.766016
dts=11254
dts_time=0.732682
duration=512
duration_time=0.033333
size=1871
pos=325826
flags=___
[/PACKET]
[PACKET]
codec_type=video
stream_index=0
pts=12278
pts_time=0.799349
dts=11766
dts_time=0.766016
duration=512
duration_time=0.033333
size=2012
pos=328381
flags=___
[/PACKET]
[PACKET]
codec_type=video
stream_index=0
pts=14326
pts_time=0.932682
dts=12278
dts_time=0.799349
duration=512
duration_time=0.033333
size=10975
pos=330737
flags=___
[/PACKET]
[PACKET]
codec_type=video
stream_index=0
pts=12790
pts_time=0.832682
dts=12790
dts_time=0.832682
duration=512
duration_time=0.033333
size=1006
pos=342402
flags=___
[/PACKET]
[PACKET]
codec_type=video
stream_index=0
pts=13302
pts_time=0.866016
dts=13302
dts_time=0.866016
duration=512
duration_time=0.033333
size=1430
pos=343755
flags=___
[/PACKET]
[PACKET]
codec_type=video
stream_index=0
pts=13814
pts_time=0.899349
dts=13814
dts_time=0.899349
duration=512
duration_time=0.033333
size=1469
pos=346021
flags=___
[/PACKET]
[PACKET]
codec_type=video
stream_index=0
pts=14838
pts_time=0.966016
dts=14326
dts_time=0.932682
duration=512
duration_time=0.033333
size=2164
pos=347823
flags=___
[/PACKET]
[PACKET]
codec_type=video
stream_index=0
pts=15350
pts_time=0.999349
dts=14838
dts_time=0.966016
duration=512
duration_time=0.033333
size=3442
pos=350334
flags=___
[/PACKET]
[PACKET]
codec_type=video
stream_index=0
pts=15862
pts_time=1.032682
dts=15350
dts_time=0.999349
duration=512
duration_time=0.033333
size=2020
pos=354465
flags=___
[/PACKET]
[PACKET]
codec_type=video
stream_index=0
pts=16374
pts_time=1.066016
dts=15862
dts_time=1.032682
duration=512
duration_time=0.033333
size=2122
pos=356837
flags=___
[/PACKET]
[PACKET]
codec_type=video
stream_index=0
pts=16886
pts_time=1.099349
dts=16374
dts_time=1.066016
duration=512
duration_time=0.033333
size=2125
pos=359691
flags=___
[/PACKET]
[PACKET]
codec_type=video
stream_index=0
pts=17398
pts_time=1.132682
dts=16886
dts_time=1.099349
duration=512
duration_time=0.033333
size=3430
pos=362201
flags=___
[/PACKET]
[PACKET]
codec_type=video
stream_index=0
pts=17910
pts_time=1.166016
dts=17398
dts_time=1.132682
duration=512
duration_time=0.033333
size=2202
pos=366418
flags=___
[/PACKET]
[PACKET]
codec_type=video
stream_index=0
pts=19958
pts_time=1.299349
dts=17910
dts_time=1.166016
duration=512
duration_time=0.033333
size=31236
pos=369077
flags=___
[/PACKET]
[PACKET]
codec_type=video
stream_index=0
pts=18422
pts_time=1.199349
dts=18422
dts_time=1.199349
duration=512
duration_time=0.033333
size=2025
pos=401012
flags=___
[/PACKET]
[PACKET]
codec_type=video
stream_index=0
pts=18934
pts_time=1.232682
dts=18934
dts_time=1.232682
duration=512
duration_time=0.033333
size=2353
pos=403409
flags=___
[/PACKET]
[PACKET]
codec_type=video
stream_index=0
pts=19446
pts_time=1.266016
dts=19446
dts_time=1.266016
duration=512
duration_time=0.033333
size=2065
pos=406114
flags=___
[/PACKET]
[PACKET]
codec_type=video
stream_index=0
pts=22006
pts_time=1.432682
dts=19958
dts_time=1.299349
duration=512
duration_time=0.033333
size=118932
pos=408901
flags=___
[/PACKET]
[PACKET]
codec_type=video
stream_index=0
pts=20470
pts_time=1.332682
dts=20470
dts_time=1.332682
duration=512
duration_time=0.033333
size=3768
pos=528178
flags=___
[/PACKET]
[PACKET]
codec_type=video
stream_index=0
pts=20982
pts_time=1.366016
dts=20982
dts_time=1.366016
duration=512
duration_time=0.033333
size=3661
pos=532631
flags=___
[/PACKET]
[PACKET]
codec_type=video
stream_index=0
pts=21494
pts_time=1.399349
dts=21494
dts_time=1.399349
duration=512
duration_time=0.033333
size=3333
pos=536645
flags=___
[/PACKET]
[PACKET]
codec_type=video
stream_index=0
pts=24054
pts_time=1.566016
dts=22006
dts_time=1.432682
duration=512
duration_time=0.033333
size=3807
pos=540809
flags=___
[/PACKET]
[PACKET]
codec_type=video
stream_index=0
pts=22518
pts_time=1.466016
dts=22518
dts_time=1.466016
duration=512
duration_time=0.033333
size=2034
pos=545012
flags=___
[/PACKET]
[PACKET]
codec_type=video
stream_index=0
pts=23030
pts_time=1.499349
dts=23030
dts_time=1.499349
duration=512
duration_time=0.033333
size=1845
pos=547394
flags=___
[/PACKET]
[PACKET]
codec_type=video
stream_index=0
pts=23542
pts_time=1.532682
dts=23542
dts_time=1.532682
duration=512
duration_time=0.033333
size=1221
pos=549936
flags=___
[/PACKET]
[PACKET]
codec_type=video
stream_index=0
pts=26102
pts_time=1.699349
dts=24054
dts_time=1.566016
duration=512
duration_time=0.033333
size=4250
pos=551544
flags=___
[/PACKET]
[PACKET]
codec_type=video
stream_index=0
pts=24566
pts_time=1.599349
dts=24566
dts_time=1.599349
duration=512
duration_time=0.033333
size=1007
pos=556653
flags=___
[/PACKET]
[PACKET]
codec_type=video
stream_index=0
pts=25078
pts_time=1.632682
dts=25078
dts_time=1.632682
duration=512
duration_time=0.033333
size=1182
pos=558001
flags=___
[/PACKET]
[PACKET]
codec_type=video
stream_index=0
pts=25590
pts_time=1.666016
dts=25590
dts_time=1.666016
duration=512
duration_time=0.033333
size=825
pos=559890
flags=___
[/PACKET]
[PACKET]
codec_type=video
stream_index=0
pts=28150
pts_time=1.832682
dts=26102
dts_time=1.699349
duration=512
duration_time=0.033333
size=16747
pos=561080
flags=___
[/PACKET]
[PACKET]
codec_type=video
stream_index=0
pts=26614
pts_time=1.732682
dts=26614
dts_time=1.732682
duration=512
duration_time=0.033333
size=828
pos=578209
flags=___
[/PACKET]
[PACKET]
codec_type=video
stream_index=0
pts=27126
pts_time=1.766016
dts=27126
dts_time=1.766016
duration=512
duration_time=0.033333
size=990
pos=579757
flags=___
[/PACKET]
[PACKET]
codec_type=video
stream_index=0
pts=27638
pts_time=1.799349
dts=27638
dts_time=1.799349
duration=512
duration_time=0.033333
size=1080
pos=581105
flags=___
[/PACKET]
[PACKET]
codec_type=video
stream_index=0
pts=30198
pts_time=1.966016
dts=28150
dts_time=1.832682
duration=512
duration_time=0.033333
size=1893
pos=582902
flags=___
[/PACKET]
[PACKET]
codec_type=video
stream_index=0
pts=28662
pts_time=1.866016
dts=28662
dts_time=1.866016
duration=512
duration_time=0.033333
size=540
pos=585168
flags=___
[/PACKET]
[PACKET]
codec_type=video
stream_index=0
pts=29174
pts_time=1.899349
dts=29174
dts_time=1.899349
duration=512
duration_time=0.033333
size=735
pos=586449
flags=___
[/PACKET]
[PACKET]
codec_type=video
stream_index=0
pts=29686
pts_time=1.932682
dts=29686
dts_time=1.932682
duration=512
duration_time=0.033333
size=608
pos=587545
flags=___
[/PACKET]
[PACKET]
codec_type=video
stream_index=0
pts=32246
pts_time=2.099349
dts=30198
dts_time=1.966016
duration=512
duration_time=0.033333
size=2920
pos=588945
flags=___
[/PACKET]
[PACKET]
codec_type=video
stream_index=0
pts=30710
pts_time=1.999349
dts=30710
dts_time=1.999349
duration=512
duration_time=0.033333
size=842
pos=592262
flags=___
[/PACKET]
[PACKET]
codec_type=video
stream_index=0
pts=31222
pts_time=2.032682
dts=31222
dts_time=2.032682
duration=512
duration_time=0.033333
size=960
pos=593481
flags=___
[/PACKET]
[PACKET]
codec_type=video
stream_index=0
pts=31734
pts_time=2.066016
dts=31734
dts_time=2.066016
duration=512
duration_time=0.033333
size=836
pos=595151
flags=___
[/PACKET]
[PACKET]
codec_type=video
stream_index=0
pts=32758
pts_time=2.132682
dts=32246
dts_time=2.099349
duration=512
duration_time=0.033333
size=916
pos=596364
flags=___
[/PACKET]
[PACKET]
codec_type=video
stream_index=0
pts=33270
pts_time=2.166016
dts=32758
dts_time=2.132682
duration=512
duration_time=0.033333
size=995
pos=598073
flags=___
[/PACKET]
[PACKET]
codec_type=video
stream_index=0
pts=33782
pts_time=2.199349
dts=33270
dts_time=2.166016
duration=512
duration_time=0.033333
size=269270
pos=599550
flags=K__
[/PACKET]
[PACKET]
codec_type=video
stream_index=0
pts=35830
pts_time=2.332682
dts=33782
dts_time=2.199349
duration=512
duration_time=0.033333
size=7464
pos=869609
flags=___
[/PACKET]
[PACKET]
codec_type=video
stream_index=0
pts=34294
pts_time=2.232682
dts=34294
dts_time=2.232682
duration=512
duration_time=0.033333
size=1244
pos=877453
flags=___
[/PACKET]
[PACKET]
codec_type=video
stream_index=0
pts=34806
pts_time=2.266016
dts=34806
dts_time=2.266016
duration=512
duration_time=0.033333
size=1704
pos=879017
flags=___
[/PACKET]
[PACKET]
codec_type=video
stream_index=0
pts=35318
pts_time=2.299349
dts=35318
dts_time=2.299349
duration=512
duration_time=0.033333
size=2603
pos=881391
flags=___
[/PACKET]
[PACKET]
codec_type=video
stream_index=0
pts=37878
pts_time=2.466016
dts=35830
dts_time=2.332682
duration=512
duration_time=0.033333
size=18380
pos=884387
flags=___
[/PACKET]
[PACKET]
codec_type=video
stream_index=0
pts=36342
pts_time=2.366016
dts=36342
dts_time=2.366016
duration=512
duration_time=0.033333
size=2301
pos=903731
flags=___
[/PACKET]
[PACKET]
codec_type=video
stream_index=0
pts=36854
pts_time=2.399349
dts=36854
dts_time=2.399349
duration=512
duration_time=0.033333
size=2345
pos=906372
flags=___
[/PACKET]
[PACKET]
codec_type=video
stream_index=0
pts=37366
pts_time=2.432682
dts=37366
dts_time=2.432682
duration=512
duration_time=0.033333
size=2075
pos=909351
flags=___
[/PACKET]
[PACKET]
codec_type=video
stream_index=0
pts=39926
pts_time=2.599349
dts=37878
dts_time=2.466016
duration=512
duration_time=0.033333
size=5958
pos=911758
flags=___
[/PACKET]
[PACKET]
codec_type=video
stream_index=0
pts=38390
pts_time=2.499349
dts=38390
dts_time=2.499349
duration=512
duration_time=0.033333
size=1971
pos=918041
flags=___
[/PACKET]
[PACKET]
codec_type=video
stream_index=0
pts=38902
pts_time=2.532682
dts=38902
dts_time=2.532682
duration=512
duration_time=0.033333
size=2069
pos=920687
flags=___
[/PACKET]
[PACKET]
codec_type=video
stream_index=0
pts=39414
pts_time=2.566016
dts=39414
dts_time=2.566016
duration=512
duration_time=0.033333
size=1677
pos=923103
flags=___
[/PACKET]
[PACKET]
codec_type=video
stream_index=0
pts=41974
pts_time=2.732682
dts=39926
dts_time=2.599349
duration=512
duration_time=0.033333
size=8843
pos=925465
flags=___
[/PACKET]
[PACKET]
codec_type=video
stream_index=0
pts=40438
pts_time=2.632682
dts=40438
dts_time=2.632682
duration=512
duration_time=0.033333
size=1870
pos=934657
flags=___
[/PACKET]
[PACKET]
codec_type=video
stream_index=0
pts=40950
pts_time=2.666016
dts=40950
dts_time=2.666016
duration=512
duration_time=0.033333
size=2036
pos=937250
flags=___
[/PACKET]
[PACKET]
codec_type=video
stream_index=0
pts=41462
pts_time=2.699349
dts=41462
dts_time=2.699349
duration=512
duration_time=0.033333
size=1923
pos=939651
flags=___
[/PACKET]
[PACKET]
codec_type=video
stream_index=0
pts=44022
pts_time=2.866016
dts=41974
dts_time=2.732682
duration=512
duration_time=0.033333
size=39474
pos=942514
flags=___
[/PACKET]
[PACKET]
codec_type=video
stream_index=0
pts=42486
pts_time=2.766016
dts=42486
dts_time=2.766016
duration=512
duration_time=0.033333
size=1764
pos=982325
flags=___
[/PACKET]
[PACKET]
codec_type=video
stream_index=0
pts=42998
pts_time=2.799349
dts=42998
dts_time=2.799349
duration=512
duration_time=0.033333
size=1895
pos=984416
flags=___
[/PACKET]
[PACKET]
codec_type=video
stream_index=0
pts=43510
pts_time=2.832682
dts=43510
dts_time=2.832682
duration=512
duration_time=0.033333
size=1682
pos=987124
flags=___
[/PACKET]
[PACKET]
codec_type=video
stream_index=0
pts=46070
pts_time=2.999349
dts=44022
dts_time=2.866016
duration=512
duration_time=0.033333
size=9573
pos=989184
flags=___
[/PACKET]
[PACKET]
codec_type=video
stream_index=0
pts=44534
pts_time=2.899349
dts=44534
dts_time=2.899349
duration=512
duration_time=0.033333
size=1552
pos=999591
flags=___
[/PACKET]
[PACKET]
codec_type=video
stream_index=0
pts=45046
pts_time=2.932682
dts=45046
dts_time=2.932682
duration=512
duration_time=0.033333
size=1652
pos=1001489
flags=___
[/PACKET]
[PACKET]
codec_type=video
stream_index=0
pts=45558
pts_time=2.966016
dts=45558
dts_time=2.966016
duration=512
duration_time=0.033333
size=1502
pos=1003854
flags=___
[/PACKET]
[PACKET]
codec_type=video
stream_index=0
pts=48118
pts_time=3.132682
dts=46070
dts_time=2.999349
duration=512
duration_time=0.033333
size=2910
pos=1005693
flags=___
[/PACKET]
[PACKET]
codec_type=video
stream_index=0
pts=46582
pts_time=3.032682
dts=46582
dts_time=3.032682
duration=512
duration_time=0.033333
size=1682
pos=1008944
flags=___
[/PACKET]
[PACKET]
codec_type=video
stream_index=0
pts=47094
pts_time=3.066016
dts=47094
dts_time=3.066016
duration=512
duration_time=0.033333
size=1739
pos=1011325
flags=___
[/PACKET]
[PACKET]
codec_type=video
stream_index=0
pts=47606
pts_time=3.099349
dts=47606
dts_time=3.099349
duration=512
duration_time=0.033333
size=1579
pos=1013418
flags=___
[/PACKET]
[PACKET]
codec_type=video
stream_index=0
pts=50166
pts_time=3.266016
dts=48118
dts_time=3.132682
duration=512
duration_time=0.033333
size=4922
pos=1015712
flags=___
[/PACKET]
[PACKET]
codec_type=video
stream_index=0
pts=48630
pts_time=3.166016
dts=48630
dts_time=3.166016
duration=512
duration_time=0.033333
size=2322
pos=1021000
flags=___
[/PACKET]
[PACKET]
codec_type=video
stream_index=0
pts=49142
pts_time=3.199349
dts=49142
dts_time=3.199349
duration=512
duration_time=0.033333
size=2424
pos=1024036
flags=___
[/PACKET]
[PACKET]
codec_type=video
stream_index=0
pts=49654
pts_time=3.232682
dts=49654
dts_time=3.232682
duration=512
duration_time=0.033333
size=2204
pos=1026824
flags=___
[/PACKET]
[PACKET]
codec_type=video
stream_index=0
pts=52214
pts_time=3.399349
dts=50166
dts_time=3.266016
duration=512
duration_time=0.033333
size=4036
pos=1029760
flags=___
[/PACKET]
[PACKET]
codec_type=video
stream_index=0
pts=50678
pts_time=3.299349
dts=50678
dts_time=3.299349
duration=512
duration_time=0.033333
size=2266
pos=1034175
flags=___
[/PACKET]
[PACKET]
codec_type=video
stream_index=0
pts=51190
pts_time=3.332682
dts=51190
dts_time=3.332682
duration=512
duration_time=0.033333
size=2569
pos=1036823
flags=___
[/PACKET]
[PACKET]
codec_type=video
stream_index=0
pts=51702
pts_time=3.366016
dts=51702
dts_time=3.366016
duration=512
duration_time=0.033333
size=2433
pos=1040153
flags=___
[/PACKET]
[PACKET]
codec_type=video
stream_index=0
pts=54262
pts_time=3.532682
dts=52214
dts_time=3.399349
duration=512
duration_time=0.033333
size=5056
pos=1042964
flags=___
[/PACKET]
[PACKET]
codec_type=video
stream_index=0
pts=52726
pts_time=3.432682
dts=52726
dts_time=3.432682
duration=512
duration_time=0.033333
size=2312
pos=1048765
flags=___
[/PACKET]
[PACKET]
codec_type=video
stream_index=0
pts=53238
pts_time=3.466016
dts=53238
dts_time=3.466016
duration=512
duration_time=0.033333
size=1974
pos=1051488
flags=___
[/PACKET]
[PACKET]
codec_type=video
stream_index=0
pts=53750
pts_time=3.499349
dts=53750
dts_time=3.499349
duration=512
duration_time=0.033333
size=1895
pos=1054201
flags=___
[/PACKET]
[PACKET]
codec_type=video
stream_index=0
pts=54774
pts_time=3.566016
dts=54262
dts_time=3.532682
duration=512
duration_time=0.033333
size=3501
pos=1056497
flags=___
[/PACKET]
[PACKET]
codec_type=video
stream_index=0
pts=55286
pts_time=3.599349
dts=54774
dts_time=3.566016
duration=512
duration_time=0.033333
size=2999
pos=1060355
flags=___
[/PACKET]
[PACKET]
codec_type=video
stream_index=0
pts=55798
pts_time=3.632682
dts=55286
dts_time=3.599349
duration=512
duration_time=0.033333
size=2915
pos=1064094
flags=___
[/PACKET]
[PACKET]
codec_type=video
stream_index=0
pts=56310
pts_time=3.666016
dts=55798
dts_time=3.632682
duration=512
duration_time=0.033333
size=3107
pos=1067396
flags=___
[/PACKET]
[PACKET]
codec_type=video
stream_index=0
pts=56822
pts_time=3.699349
dts=56310
dts_time=3.666016
duration=512
duration_time=0.033333
size=21894
pos=1071235
flags=___
[/PACKET]
[PACKET]
codec_type=video
stream_index=0
pts=57334
pts_time=3.732682
dts=56822
dts_time=3.699349
duration=512
duration_time=0.033333
size=2927
pos=1093508
flags=___
[/PACKET]
[PACKET]
codec_type=video
stream_index=0
pts=57846
pts_time=3.766016
dts=57334
dts_time=3.732682
duration=512
duration_time=0.033333
size=2778
pos=1097226
flags=___
[/PACKET]
[PACKET]
codec_type=video
stream_index=0
pts=58358
pts_time=3.799349
dts=57846
dts_time=3.766016
duration=512
duration_time=0.033333
size=2714
pos=1100354
flags=___
[/PACKET]
[PACKET]
codec_type=video
stream_index=0
pts=58870
pts_time=3.832682
dts=58358
dts_time=3.799349
duration=512
duration_time=0.033333
size=2962
pos=1103424
flags=___
[/PACKET]
[PACKET]
codec_type=video
stream_index=0
pts=59382
pts_time=3.866016
dts=58870
dts_time=3.832682
duration=512
duration_time=0.033333
size=3162
pos=1107101
flags=___
[/PACKET]
[PACKET]
codec_type=video
stream_index=0
pts=59894
pts_time=3.899349
dts=59382
dts_time=3.866016
duration=512
duration_time=0.033333
size=2995
pos=1110629
flags=___
[/PACKET]
[PACKET]
codec_type=video
stream_index=0
pts=60406
pts_time=3.932682
dts=59894
dts_time=3.899349
duration=512
duration_time=0.033333
size=2870
pos=1114356
flags=___
[/PACKET]
[PACKET]
codec_type=video
stream_index=0
pts=60918
pts_time=3.966016
dts=60406
dts_time=3.932682
duration=512
duration_time=0.033333
size=4292
pos=1117641
flags=___
[/PACKET]
[PACKET]
codec_type=video
stream_index=0
pts=61430
pts_time=3.999349
dts=60918
dts_time=3.966016
duration=512
duration_time=0.033333
size=5428
pos=1122650
flags=___
[/PACKET]
[PACKET]
codec_type=video
stream_index=0
pts=61942
pts_time=4.032682
dts=61430
dts_time=3.999349
duration=512
duration_time=0.033333
size=3523
pos=1128449
flags=___
[/PACKET]
[PACKET]
codec_type=video
stream_index=0
pts=62454
pts_time=4.066016
dts=61942
dts_time=4.032682
duration=512
duration_time=0.033333
size=3532
pos=1132703
flags=___
[/PACKET]
[PACKET]
codec_type=video
stream_index=0
pts=62966
pts_time=4.099349
dts=62454
dts_time=4.066016
duration=512
duration_time=0.033333
size=3822
pos=1136607
flags=___
[/PACKET]
[PACKET]
codec_type=video
stream_index=0
pts=63478
pts_time=4.132682
dts=62966
dts_time=4.099349
duration=512
duration_time=0.033333
size=3939
pos=1140788
flags=___
[/PACKET]
[PACKET]
codec_type=video
stream_index=0
pts=63990
pts_time=4.166016
dts=63478
dts_time=4.132682
duration=512
duration_time=0.033333
size=3715
pos=1145548
flags=___
[/PACKET]
[PACKET]
codec_type=video
stream_index=0
pts=64502
pts_time=4.199349
dts=63990
dts_time=4.166016
duration=512
duration_time=0.033333
size=3758
pos=1149719
flags=___
[/PACKET]
[PACKET]
codec_type=video
stream_index=0
pts=65014
pts_time=4.232682
dts=64502
dts_time=4.199349
duration=512
duration_time=0.033333
size=4384
pos=1154150
flags=___
[/PACKET]
[PACKET]
codec_type=video
stream_index=0
pts=65526
pts_time=4.266016
dts=65014
dts_time=4.232682
duration=512
duration_time=0.033333
size=9518
pos=1158891
flags=___
[/PACKET]
[PACKET]
codec_type=video
stream_index=0
pts=67574
pts_time=4.399349
dts=65526
dts_time=4.266016
duration=512
duration_time=0.033333
size=22864
pos=1169116
flags=___
[/PACKET]
[PACKET]
codec_type=video
stream_index=0
pts=66038
pts_time=4.299349
dts=66038
dts_time=4.299349
duration=512
duration_time=0.033333
size=3302
pos=1192337
flags=___
[/PACKET]
[PACKET]
codec_type=video
stream_index=0
pts=66550
pts_time=4.332682
dts=66550
dts_time=4.332682
duration=512
duration_time=0.033333
size=3649
pos=1196007
flags=___
[/PACKET]
[PACKET]
codec_type=video
stream_index=0
pts=67062
pts_time=4.366016
dts=67062
dts_time=4.366016
duration=512
duration_time=0.033333
size=3273
pos=1200365
flags=___
[/PACKET]
[PACKET]
codec_type=video
stream_index=0
pts=69622
pts_time=4.532682
dts=67574
dts_time=4.399349
duration=512
duration_time=0.033333
size=40218
pos=1204007
flags=___
[/PACKET]
[PACKET]
codec_type=video
stream_index=0
pts=68086
pts_time=4.432682
dts=68086
dts_time=4.432682
duration=512
duration_time=0.033333
size=2682
pos=1244986
flags=___
[/PACKET]
[PACKET]
codec_type=video
stream_index=0
pts=68598
pts_time=4.466016
dts=68598
dts_time=4.466016
duration=512
duration_time=0.033333
size=2726
pos=1248072
flags=___
[/PACKET]
[PACKET]
codec_type=video
stream_index=0
pts=69110
pts_time=4.499349
dts=69110
dts_time=4.499349
duration=512
duration_time=0.033333
size=2510
pos=1251523
flags=___
[/PACKET]
[PACKET]
codec_type=video
stream_index=0
pts=71670
pts_time=4.666016
dts=69622
dts_time=4.532682
duration=512
duration_time=0.033333
size=4307
pos=1254455
flags=___
[/PACKET]
[PACKET]
codec_type=video
stream_index=0
pts=70134
pts_time=4.566016
dts=70134
dts_time=4.566016
duration=512
duration_time=0.033333
size=1869
pos=1259122
flags=___
[/PACKET]
[PACKET]
codec_type=video
stream_index=0
pts=70646
pts_time=4.599349
dts=70646
dts_time=4.599349
duration=512
duration_time=0.033333
size=2289
pos=1261689
flags=___
[/PACKET]
[PACKET]
codec_type=video
stream_index=0
pts=71158
pts_time=4.632682
dts=71158
dts_time=4.632682
duration=512
duration_time=0.033333
size=2174
pos=1264347
flags=___
[/PACKET]
[PACKET]
codec_type=video
stream_index=0
pts=73718
pts_time=4.799349
dts=71670
dts_time=4.666016
duration=512
duration_time=0.033333
size=5927
pos=1267208
flags=___
[/PACKET]
[PACKET]
codec_type=video
stream_index=0
pts=72182
pts_time=4.699349
dts=72182
dts_time=4.699349
duration=512
duration_time=0.033333
size=2341
pos=1273500
flags=___
[/PACKET]
[PACKET]
codec_type=video
stream_index=0
pts=72694
pts_time=4.732682
dts=72694
dts_time=4.732682
duration=512
duration_time=0.033333
size=2951
pos=1276557
flags=___
[/PACKET]
[PACKET]
codec_type=video
stream_index=0
pts=73206
pts_time=4.766016
dts=73206
dts_time=4.766016
duration=512
duration_time=0.033333
size=2267
pos=1279859
flags=___
[/PACKET]
[PACKET]
codec_type=video
stream_index=0
pts=74230
pts_time=4.832682
dts=73718
dts_time=4.799349
duration=512
duration_time=0.033333
size=2556
pos=1282865
flags=___
[/PACKET]
[PACKET]
codec_type=video
stream_index=0
pts=74742
pts_time=4.866016
dts=74230
dts_time=4.832682
duration=512
duration_time=0.033333
size=2506
pos=1285773
flags=___
[/PACKET]
[PACKET]
codec_type=video
stream_index=0
pts=75254
pts_time=4.899349
dts=74742
dts_time=4.866016
duration=512
duration_time=0.033333
size=2495
pos=1288681
flags=___
[/PACKET]
[PACKET]
codec_type=video
stream_index=0
pts=75766
pts_time=4.932682
dts=75254
dts_time=4.899349
duration=512
duration_time=0.033333
size=2666
pos=1291918
flags=___
[/PACKET]
[PACKET]
codec_type=video
stream_index=0
pts=76278
pts_time=4.966016
dts=75766
dts_time=4.932682
duration=512
duration_time=0.033333
size=2737
pos=1294948
flags=___
[/PACKET]
[PACKET]
codec_type=video
stream_index=0
pts=76790
pts_time=4.999349
dts=76278
dts_time=4.966016
duration=512
duration_time=0.033333
size=3510
pos=1298428
flags=___
[/PACKET]
